<mxfile host="app.diagrams.net" modified="2022-10-26T07:28:08.422Z" agent="5.0 (Windows NT 10.0; Win64; x64) AppleWebKit/537.36 (KHTML, like Gecko) Chrome/106.0.0.0 Safari/537.36" etag="kXo6O2Tx1zGeVCaTy5yM" version="20.5.1" type="github">
  <diagram id="Km8lynCR_9PmExeej9vT" name="第 1 页">
    <mxGraphModel dx="447" dy="777" grid="1" gridSize="10" guides="1" tooltips="1" connect="1" arrows="1" fold="1" page="1" pageScale="1" pageWidth="827" pageHeight="1169" math="0" shadow="0">
      <root>
        <mxCell id="0" />
        <mxCell id="1" parent="0" />
        <mxCell id="gn8BLIHr69XTNR5BILcQ-1" value="VM" style="rounded=1;whiteSpace=wrap;html=1;" vertex="1" parent="1">
          <mxGeometry x="130" y="100" width="180" height="110" as="geometry" />
        </mxCell>
        <mxCell id="gn8BLIHr69XTNR5BILcQ-8" style="edgeStyle=orthogonalEdgeStyle;rounded=0;orthogonalLoop=1;jettySize=auto;html=1;entryX=1;entryY=0.5;entryDx=0;entryDy=0;" edge="1" parent="1" source="gn8BLIHr69XTNR5BILcQ-2" target="gn8BLIHr69XTNR5BILcQ-6">
          <mxGeometry relative="1" as="geometry" />
        </mxCell>
        <mxCell id="gn8BLIHr69XTNR5BILcQ-2" value="Vm" style="rounded=1;whiteSpace=wrap;html=1;" vertex="1" parent="1">
          <mxGeometry x="440" y="220" width="120" height="60" as="geometry" />
        </mxCell>
        <mxCell id="gn8BLIHr69XTNR5BILcQ-7" style="edgeStyle=orthogonalEdgeStyle;rounded=0;orthogonalLoop=1;jettySize=auto;html=1;" edge="1" parent="1" source="gn8BLIHr69XTNR5BILcQ-5" target="gn8BLIHr69XTNR5BILcQ-6">
          <mxGeometry relative="1" as="geometry" />
        </mxCell>
        <mxCell id="gn8BLIHr69XTNR5BILcQ-5" value="exporter" style="ellipse;whiteSpace=wrap;html=1;aspect=fixed;" vertex="1" parent="1">
          <mxGeometry x="140" y="140" width="60" height="60" as="geometry" />
        </mxCell>
        <mxCell id="gn8BLIHr69XTNR5BILcQ-11" style="edgeStyle=orthogonalEdgeStyle;rounded=0;orthogonalLoop=1;jettySize=auto;html=1;" edge="1" parent="1" source="gn8BLIHr69XTNR5BILcQ-6" target="gn8BLIHr69XTNR5BILcQ-10">
          <mxGeometry relative="1" as="geometry" />
        </mxCell>
        <mxCell id="gn8BLIHr69XTNR5BILcQ-6" value="prometheus" style="rounded=1;whiteSpace=wrap;html=1;" vertex="1" parent="1">
          <mxGeometry x="160" y="310" width="120" height="60" as="geometry" />
        </mxCell>
        <mxCell id="gn8BLIHr69XTNR5BILcQ-10" value="grafana" style="rounded=1;whiteSpace=wrap;html=1;" vertex="1" parent="1">
          <mxGeometry x="160" y="480" width="120" height="60" as="geometry" />
        </mxCell>
      </root>
    </mxGraphModel>
  </diagram>
</mxfile>
